<svg width="632" height="520" xmlns="http://www.w3.org/2000/svg">
  <g id="" stroke="none" stroke-width="1" fill="none" fill-rule="evenodd">
    <g id="hero-illustration-covid">
      <g id="illustration">
        <g id="Group">
          <path d="M497.837 100.692c-6.473-26.005-23.354-49.742-53.614-65.196C308.366-33.891 94.524-3.924 32.635 160.02-22.58 306.283-16.924 519.494 121.76 519.494h452.33c46.798-23.354 57.669-95.934 57.547-214.554-2.765-86.088-66.853-183.679-133.8-204.248z" id="Path" fill="#FBFBFB" fill-rule="nonzero"/>
          <g transform="translate(105 4)">
            <path d="M486.798 301.966l-29.258 81.613h-85.206l29.258-81.613c2.31-6.16 8.212-10.522 14.885-10.522h62.878c5.648 0 9.496 5.39 7.443 10.522" id="Path" fill="#3E4451" fill-rule="nonzero"/>
            <path d="M408.008 271.426s-.257 32.337-15.142 32.337c-15.142 0-9.752-31.054-9.752-31.054l24.894-1.283z" id="Path" fill="#FFFFFF" fill-rule="nonzero"/>
            <path d="M408.008 271.426s22.328 11.806 29.514 17.452c7.186 5.646 14.629 55.949 14.629 55.949H341.537s9.753-49.276 14.629-55.179c5.133-5.903 26.691-16.682 26.691-16.682l4.106 28.231 21.045-29.771" id="Path" fill="#B6DFEB" fill-rule="nonzero"/>
            <path d="M413.655 249.098c-2.823 2.053-7.956 8.213-8.982 10.009-1.54 5.389 2.823 12.832 2.823 12.832-16.169 15.399-23.611 1.283-23.611 1.283 2.823-12.319-1.283-11.806-1.283-11.806s-2.566-.513-4.106-2.053c-2.823-1.796-7.699-19.505-7.699-19.505l3.336-9.239.77-16.938 15.142-9.496s22.072 4.62 26.691 15.399c4.619 11.035-3.081 29.514-3.081 29.514" id="Path" fill="#E79E65" fill-rule="nonzero"/>
            <path d="M425.46 217.531c-1.32-2.891-2.884-5.352-4.623-7.437l.517-.263s1.283-4.363-1.026-6.674c-1.797-1.796-7.186-2.053-7.186-2.053s.514-2.566-1.796-3.593c-2.31-1.027-4.363.513-4.363.513s-3.08-3.593-6.673-4.106c-3.593-.513-5.903 3.08-5.903 3.08s-2.567-1.796-4.363-1.283c-1.54.513-2.823 3.336-2.823 3.336s-4.876-2.053-8.726 0c-1.54 1.027-2.31 3.85-2.823 6.673-.257 1.284-4.62 2.31-4.62 6.16s3.336 7.956 3.336 7.956l1.54-6.416s.513 2.823 3.593 3.08c3.08.256 6.673-3.08 6.673-3.08s3.593 4.619 9.239 6.416c4.907 1.562 9.81-1.527 11.01-2.363l.282.054s-2.823 18.991-2.053 20.018c.513 1.026 4.876-5.903 7.699-3.08-.513 12.319.257 13.602 1.027 14.629 0 0 5.646-4.62 9.239-11.036 2.824-4.876 5.389-14.629 2.823-20.531z" id="Path" fill="#A15028" fill-rule="nonzero"/>
            <path d="M392.867 236.009c-.257 1.54-.77 2.567-1.54 2.567s-1.283-1.283-1.027-2.823c.257-1.54.77-2.566 1.54-2.566.769-.001 1.284 1.282 1.027 2.822" id="Path" fill="#42210B" fill-rule="nonzero"/>
            <path d="M392.867 236.009h-1.027c0 .513-.257 1.027-.513 1.283l-.257.256v.257-.257.257-.257.257-.257.257-.257 1.027-1.027.257l.257-.257v.257l.257-.257s0-.256-.257-.256c0-.257-.257-.513-.257-1.027v-.513c0-.513.257-1.027.513-1.283l.257-.257v-.256.256-.256.256-.256.256-.256.256-.77.77-.77.77-.256l-.257.256v-.256l-.257.256.257.257c0 .257.257.513.257 1.027v.513h2.054v-.77c0-.77 0-1.283-.257-2.053-.257-.257-.257-.513-.513-.77-.257-.257-.513-.513-1.027-.513v1.027l.257-1.027h-.257c-.513 0-.77.257-1.027.513-.77.77-1.283 1.796-1.283 3.08v.77c0 .77 0 1.283.257 2.053.257.257.257.513.513.77.257.256.513.513 1.027.513.513 0 .77-.257 1.027-.513.77-.77 1.283-1.796 1.283-3.08h-1.027zM378.237 234.212c-.257 1.54-.77 2.567-1.54 2.567s-1.283-1.283-1.027-2.823c.257-1.54.77-2.567 1.54-2.567.772.257 1.285 1.54 1.027 2.823" id="Path" fill="#42210B" fill-rule="nonzero"/>
            <path d="M378.237 234.212h-1.027c0 .513-.257 1.027-.513 1.283l-.257.256v.257-.257.257-.257 1.027-1.027.257-.257.257-.257s0-.256-.257-.256c0-.257-.257-.513-.257-1.027v-.513c0-.513.257-1.027.513-1.283l.257-.257v-.256.256-.256.256-.256.256-.256.256-.77.77-.77.77-.256l-.257.256v-.256l-.257.256.257.257c0 .257.257.513 0 1.027v.513h2.825v-.77c0-.77 0-1.283-.257-2.053-.257-.257-.257-.513-.513-.77-.257-.257-.513-.513-1.027-.513v1.027l.257-1.027h-.257c-.513 0-.77.257-1.027.513-.77.77-1.283 1.796-1.283 3.08v.77c0 .77 0 1.283.257 2.053.257.257.257.513.513.77.257.256.513.513 1.027.513.513 0 .77-.257 1.027-.513.77-.77 1.283-1.796 1.283-3.08h-1.027zM390.044 227.026c2.31 0 4.363 1.027 6.16 2.053.77.513 1.283.77 2.053 1.283l.257.257.257.257.257.257c.77.77 2.053-.513 1.283-1.283-2.566-2.31-6.416-4.106-10.009-4.363-1.541-.257-1.541 1.539-.258 1.539M382.345 224.46c-2.31-.513-4.62-.257-6.929.513-.513.257-.77.513-.513 1.027 0 .513.513.77 1.027.513 2.053-.513 4.106-.77 6.159-.513.513 0 1.027 0 1.027-.513-.001-.257-.258-.77-.771-1.027M384.653 241.398c-.77 0-1.283 0-1.796-.256-.513 0-1.027-.257-1.54-.257h-.771v.77l.257-.257c.257-.256.257-.513.513-.77.77-1.027 1.283-2.053 1.796-2.823 1.027-1.796 1.796-3.593 2.566-5.39.513-1.027-1.283-1.54-1.796-.513-1.027 2.823-2.566 5.646-4.363 8.212-.257.513-1.027 1.027-.77 1.796.257 1.027 1.796 1.283 2.823 1.54 1.027.257 1.796.257 2.823.257 1.543-.512 1.543-2.309.258-2.309" id="Path" fill="#42210B" fill-rule="nonzero"/>
            <path d="M403.646 323.781c-10.779 0-22.585 2.053-30.284 8.726 0 0 1.54-.257 4.106-.257 3.08 0 7.443.513 11.036 3.337 4.106-.77 43.373-8.213 43.373-8.213s-13.602-3.593-28.231-3.593" id="Path" fill="#A4C9D4" fill-rule="nonzero"/>
            <path d="M397.485 344.826H384.91s-16.682-.257-20.019-.77c-3.336-.514 2.053-9.239 8.213-11.549 6.416-2.31 14.885 2.823 14.885 2.823l7.956-1.796 1.54 11.292z" id="Path" fill="#E79E65" fill-rule="nonzero"/>
            <path d="M392.354 246.274c-4.106 6.416-10.522 5.133-10.522 5.133v-3.85c4.619.771 10.522-1.283 10.522-1.283" id="Path" fill="#42210B" fill-rule="nonzero"/>
            <path id="Path" fill="#E9D2B3" fill-rule="nonzero" d="M481.666 492.14H6.104L.971 344.826h485.827l-5.132 147.314"/>
            <path d="M16.882 513.184s-.77 2.053 1.54 2.31h5.646s1.54-.257 2.053-2.053l12.576-21.302H26.891l-10.009 21.045z" id="Path" fill="#D9B086" fill-rule="nonzero"/>
            <g transform="translate(1 344)" fill="#E5C9A8" fill-rule="nonzero">
              <path d="M17.653 78.588c13.602-4.62 25.921-8.983 37.983-8.983 7.956 0 15.912 2.053 24.638 4.62l-.257-2.823c-7.955-2.309-16.168-4.362-24.124-4.362-12.576 0-25.151 4.62-38.753 9.239-4.62 1.54-9.496 3.08-14.372 4.363v.457l.073 2.087c5.108-1.533 10.215-3.065 14.812-4.598zM65.645 12.118H.457v2.567h65.701c.001-.77-.256-1.54-.513-2.567zM9.953 58.058c-2.566.77-5.133 1.796-7.699 2.566v2.566c2.823-1.027 5.646-1.796 8.469-2.823 13.602-4.62 27.718-8.983 45.169-8.983 7.699 0 14.629.77 21.302 2.31-.257-.77-.513-1.796-1.027-2.823h.002c-.001-.77-.258-1.284-.514-2.053H55.894c.189 0 .373.006.561.007-.189-.001-.372-.007-.562-.007H1.741v2.566h30.797c1.911-.395 3.823-.755 5.751-1.074-1.882.319-3.714.679-5.494 1.074-8.213 1.797-15.655 4.107-22.842 6.674zM70.009 30.596H1.008l.089 2.567h69.425c0-1.026-.257-1.796-.513-2.567zM485.553 7.86l.089-2.542-6.543-2.181-6.929-2.31h-8.213c4.62 1.54 9.496 3.08 14.372 4.62 2.408.722 4.817 1.662 7.224 2.413zM56.406 84.751c7.443 0 16.425 3.08 23.354 5.903.77.257 1.283.513 2.053.77l-.257-2.823c-.257 0-.513-.257-.77-.257-7.698-2.826-16.937-5.905-24.893-5.905-7.956 0-17.195 3.08-24.381 6.159-7.186 3.08-12.576 6.16-12.576 6.16-.513.257-.513.513-.513 1.027 0 .513.257.77.513 1.027 0 0 5.133 3.08 12.319 6.16 7.186 3.08 16.425 6.159 24.894 6.159 6.159 0 12.576-1.54 18.222-3.593l2.566-3.593c-6.416 2.566-14.115 4.62-20.788 4.62-7.956 0-16.938-3.08-23.868-5.903-3.593-1.54-6.416-3.08-8.469-4.106-.513-.257-1.027-.513-1.283-.77 2.566-1.283 7.443-3.85 13.089-6.159 6.673-2.567 14.372-4.876 20.788-4.876zM483.784 58.633c-11.401 3.727-22.824 7.432-36.653 8.408h-7.042c-17.708 0-31.567-4.62-45.169-8.983-13.603-4.62-27.205-9.239-43.63-9.239H135.197l.513 2.566h215.581c15.912 0 29.258 4.62 42.859 8.983 7.186 2.31 14.629 4.876 22.842 6.673H144.948c-3.592-.001-7.185-.257-10.522-.514l-2.053 2.31c3.85.513 7.956.77 12.319.77h338.71l.06-1.714v-.852h-19.188c6.758-1.508 13.094-3.45 19.414-5.637l.096-2.771zM482.848 85.519H139.045c-6.929-.001-13.345-1.027-19.504-2.053l-2.053 2.31c6.673 1.54 13.859 2.31 21.302 2.31h156.291c-8.211 1.796-15.652 4.105-22.837 6.672-13.602 4.62-26.948 8.982-42.859 8.982h1.026c.385 0 .706.129.931.353-.224-.224-.545-.352-.929-.352H138.79v-.001c-13.345 0-25.665 3.08-36.957 6.673l-.257 2.823c11.549-3.593 23.868-6.929 37.214-6.929H230.669l.006-.001c15.909-.257 29.252-4.62 42.596-9.239 13.565-4.607 27.642-8.957 45.027-8.981h.278c17.642.024 31.466 4.629 45.033 8.981 13.602 4.62 27.204 9.239 43.63 9.239h74.886l.089-2.566h-74.975c-15.912 0-29.258-4.62-42.86-8.982-7.439-2.566-14.88-5.132-22.834-6.672H482.76l.088-2.567zM267.368 148.139h8.469c-12.062-4.105-25.664-7.955-40.55-7.955H99.266l-.257 2.566h136.278c11.549 0 22.072 2.31 32.081 5.389zM357.449 12.119h-5.124l-.006-.001h-86.491c-15.912.257-29.258 4.62-42.603 9.239-13.602 4.62-27.718 8.983-45.169 8.983-17.708 0-31.567-4.62-45.169-8.983l-2.31-.77.513 2.823c.257 0 .77.257 1.027.257 7.186 2.31 14.629 4.876 22.842 6.673 7.186 1.54 14.628 2.566 23.098 2.566 8.469 0 16.169-1.027 23.098-2.566 8.213-1.796 15.655-4.106 22.842-6.673 13.602-4.62 26.434-8.983 42.346-8.983h85.976a1.455 1.455 0 00-.003.001h5.133c16.425 0 31.31-4.62 44.913-9.239 4.877-1.54 9.497-3.08 14.116-4.62h-8.213c-2.31.77-4.62 1.54-6.673 2.31-13.602 4.62-27.975 8.983-44.143 8.983zM139.305 5.446c13.602 4.62 26.177 9.239 38.753 9.239s25.151-4.62 38.753-9.239c4.874-1.54 9.75-3.08 14.883-4.62h-8.982l-6.929 2.31c-13.602 4.62-25.921 8.983-37.983 8.983-11.806 0-24.381-4.62-37.983-8.983l-6.929-2.31h-6.159l.257.77 12.319 3.85z" id="Path"/>
              <path d="M478.328 39.58c-13.602 4.62-25.921 8.983-37.984 8.983-11.805 0-24.381-4.62-37.983-8.983-13.6-4.364-28.486-8.984-44.911-8.984H201.154c-7.186 1.54-14.628 2.567-23.098 2.567h179.65c15.912 0 30.541 4.62 44.143 8.983 13.602 4.62 26.178 9.239 38.753 9.239s25.151-4.62 38.753-9.239c1.606-.459 3.41-1.114 5.06-1.617l.099-2.837c-2.112.713-4.042 1.412-6.186 1.888z" id="Path"/>
              <path d="M440.345 35.733c8.469 0 17.708-3.08 24.894-6.16s12.062-6.16 12.319-6.16c.513-.257.513-.77.513-1.027 0-.513-.257-.77-.513-1.027 0 0-5.389-3.08-12.576-6.16-7.441-2.824-16.68-6.16-24.893-6.16-7.956 0-17.195 3.08-24.381 6.16s-12.576 6.16-12.576 6.16c-.513.257-.513.513-.513 1.027 0 .513.257.77.513 1.027 0 0 5.133 3.08 12.319 6.16 7.186 3.08 16.425 6.16 24.894 6.16zm-33.877-13.349c2.566-1.283 7.443-3.85 13.089-6.16 6.417-2.309 14.115-4.619 20.531-4.619 7.443 0 16.425 3.08 23.354 5.903 3.593 1.54 6.673 3.08 8.726 4.106l1.54.77c-2.566 1.283-7.186 3.85-12.576 5.903-6.416 2.566-14.115 4.876-21.045 4.876-7.956 0-16.938-3.08-23.868-5.903-3.593-1.54-6.416-3.08-8.469-4.106-.512-.256-1.026-.513-1.282-.77z" id="Shape"/>
              <path d="M480.853 142.751l.089-2.567h-79.864c-14.885 0-28.231 3.85-40.807 7.956h8.469c10.009-3.08 20.788-5.389 32.337-5.389h79.776zM481.488 124.527l.089-2.566h-80.754c-15.912 0-30.541-4.62-44.143-8.982-13.346-4.619-25.922-9.239-38.498-9.239-12.576 0-25.151 4.62-38.753 9.239-13.602 4.62-27.974 8.982-44.143 8.982h-5.132c.77 0 1.283.513 1.283 1.283 0 .385-.129.706-.354.931.224-.224.352-.545.352-.93 0-.77-.513-1.283-1.283-1.283h-86.488c-15.912.257-29.258 4.62-42.603 9.239-.257 0-.77.257-1.027.257l-.257 2.823c.77-.257 1.283-.513 2.053-.77 13.602-4.62 26.434-8.983 42.346-8.983h85.976l.007-.001h5.127c16.425 0 31.311-4.62 44.913-9.239 13.602-4.62 25.921-8.983 37.983-8.983 11.806 0 24.381 4.62 37.984 8.983 13.602 4.62 28.487 9.239 44.913 9.239h80.409zM55.637 143.006c2.485 0 4.962-.111 7.378-.256h20.594l.001-2.566h-4.363c1.54-.257 3.08-.77 4.62-1.027l-.257-2.566c-4.363 1.027-8.726 2.053-13.602 2.823l-2.529 2.781c-.099.013-.195.029-.295.042h-.257l-.38.027-3.468-2.081c-2.31.257-4.876.257-7.186.257-17.708 0-31.567-4.62-45.169-8.982-2.053-1.027-4.107-1.54-6.16-2.31v2.823c1.796.513 3.336 1.027 5.133 1.796 6.861 2.206 13.964 4.637 21.741 6.417H4.827l.089 2.566h43.589c2.306.16 4.671.256 7.132.256z" id="Path"/>
              <path d="M318.439 145.574c8.469 0 17.708-3.08 24.894-6.159 7.186-3.08 12.062-6.16 12.319-6.16.513-.257.513-.77.513-1.027 0-.513-.257-.77-.513-1.027 0 0-5.389-3.08-12.576-6.159-7.697-3.08-16.937-6.16-24.893-6.16-7.956 0-17.195 3.08-24.381 6.16s-12.576 6.159-12.576 6.159c-.513.257-.513.513-.513 1.027 0 .513.257.77.513 1.027 0 0 5.133 3.08 12.319 6.16 7.186 3.08 16.425 6.159 24.894 6.159zm-33.877-13.346c2.566-1.283 7.443-3.85 13.089-6.159 6.417-2.31 14.115-4.62 20.531-4.62 7.443 0 16.425 3.08 23.354 5.903 3.593 1.54 6.673 3.08 8.726 4.106l1.54.77c-2.566 1.283-7.186 3.85-12.576 5.903-6.416 2.566-14.115 4.876-21.045 4.876-7.956 0-16.938-3.08-23.868-5.903-3.593-1.54-6.416-3.08-8.469-4.106-.512-.257-1.026-.513-1.282-.77z" id="Shape"/>
              <path d="M16.883 115.289c13.602 4.62 26.177 9.239 38.753 9.239 1.796 0 3.593 0 5.389-.256l2.053-2.823c-2.566.257-4.876.513-7.443.513-11.806 0-24.381-4.62-37.984-8.982-4.104-1.54-8.98-3.08-13.857-4.62v2.188l.022.642c4.612 1.281 8.966 2.818 13.067 4.099zM132.373 30.596l.513 2.567h45.17c-8.469 0-16.169-1.027-23.098-2.567h-22.585z" id="Path"/>
            </g>
            <path d="M470.63 513.184s.77 2.053-1.54 2.31h-5.646s-1.54-.257-2.053-2.053l-12.576-21.302h11.806l10.009 21.045z" id="Path" fill="#D9B086" fill-rule="nonzero"/>
            <path id="Path" fill="#2E323B" fill-rule="nonzero" d="M239.137 462.112v5.903l4.877 47.479H157.011l-2.053-53.382z"/>
            <path id="Rectangle" fill="#2E323B" fill-rule="nonzero" d="M155.214 462.112h6.673v5.389h-6.673z"/>
            <path id="Path" fill="#3E4451" fill-rule="nonzero" d="M161.887 467.502h-6.673l-4.876 47.992h16.426z"/>
            <path id="Path" fill="#000000" fill-rule="nonzero" d="M232.464 462.112h6.673v5.39h-77.25v-5.39z"/>
            <path d="M208.597 476.484v-2.823c-.257-2.566-.257-3.85-.513-6.416-.77-5.646-2.053-13.089-5.133-16.938-2.823-3.85-7.956-4.363-11.549-1.283-3.08 3.08-4.876 10.522-5.646 15.912-.257 1.54-.513 3.08-.513 4.62V472.892c0 1.283-.257 2.31-.257 3.593 0 4.106-4.363 4.106-4.363 0 0-10.266 2.053-23.098 7.699-29.771 4.363-5.133 10.779-5.903 15.655-1.796 4.363 3.593 6.673 10.522 7.956 17.452.77 4.62 1.283 9.496 1.283 14.115-.256 4.106-4.619 4.106-4.619-.001" id="Path" fill="#2E323B" fill-rule="nonzero"/>
            <g transform="translate(43 165)" fill-rule="nonzero">
              <path d="M33.424 310.201s-11.806 14.629-11.806 16.425c0 1.796 3.593 7.443 3.593 7.443l-5.903 2.566-12.062-8.213 20.531-31.054 5.647 12.833z" id="Path" fill="#C4723F"/>
              <path d="M40.867 159.038l40.036-.513L95 242l-31.548-2.889s-29.771-56.975-22.585-80.073z" id="Path" fill="#3E4451"/>
              <path d="M45.486 350.494H25.981L.83 331.502l7.956-10.009s5.133 11.549 16.425 10.779l6.159 6.929c12.063.514 14.116 11.293 14.116 11.293" id="Path" fill="#F74338"/>
              <path d="M56.266 323.803s-1.027 11.292-.257 12.319c.77 1.027 9.239 2.823 9.239 2.823l-2.31 6.673-15.655 2.053-2.566-21.045 11.549-2.823z" id="Path" fill="#C4723F"/>
              <path d="M69.61 158.525L56.521 326.627l-14.628 1.796-4.106-88.029s-20.018-53.125-17.452-81.356l49.275-.513" id="Path" fill="#3E4451"/>
              <path d="M79.62 56.637c-4.106 1.027-12.576-4.876-12.576-4.876s-3.593 18.992-.77 27.974L41.893 62.283c3.08-7.699 7.956-16.938 7.956-16.938s-1.027-4.62-3.08-7.699c0 0-2.053-24.125 6.673-32.337 8.983-8.213 31.567-3.593 31.567-3.593s7.186 3.593 7.699 12.576c.77 8.726-8.982 19.762.257 27.974 0 .255-12.318 14.114-13.345 14.371" id="Path" fill="#C4723F"/>
              <g id="Path">
                <path d="M94.081 28.745L49.938 39.781 6.565.258.149 22.073l39.78 32.08c3.85 3.08 9.239 3.85 13.859 2.053l42.09-17.195-1.797-10.266z" fill="#A86236" transform="translate(42 90)"/>
                <path d="M105.118 47.993l15.399-30.284c.513-1.027 0-2.31-1.027-2.823l-14.628-5.903c-1.027-.513-2.31 0-2.823 1.027L87.667 38.241c-.513 1.027 0 2.31 1.027 2.823l13.602 7.956c1.024.769 2.309.256 2.822-1.027z" fill="#F74338" transform="translate(42 90)"/>
                <path d="M103.32 44.913l13.859-26.178c.257-.77 0-1.283-.257-1.54l-11.292-4.62c-.77-.257-1.283 0-1.54.257L91.258 37.983c-.257.77 0 1.283.257 1.54l10.266 5.903c.771.001 1.284-.256 1.539-.513z" fill="#FFFFFF" transform="translate(42 90)"/>
                <path d="M104.605 24.638c.513.257 1.283-.257 1.796-.513.257-.77.257-1.54-.513-1.796l-2.567-1.283c-.77-.256-1.54-.256-1.796.513-.257.77-.257 1.54.513 1.796l2.567 1.283M100.755 38.754c.513.257 1.283-.257 1.796-.513.257-.77.257-1.54-.513-1.796l-4.363-2.566c-.77-.257-1.54-.257-1.796.513-.257.77-.257 1.54.513 1.796l2.566 1.283 1.797 1.283zM106.658 27.975c.257 0 .513 0 .77-.257s0-.77-.257-.77l-5.903-3.08c-.257-.257-.77 0-.77.257-.257.256 0 .77.257.77l5.903 3.08M105.375 30.028c.513 0 .77 0 .77-.256.257-.257 0-.77-.257-.77l-5.903-3.08c-.257-.257-.77 0-.77.257-.257.257 0 .77.257.77l5.903 3.079" fill="#E9E9EA" transform="translate(42 90)"/>
                <path d="M91.258 31.311s8.212-13.089 5.646-13.859c-2.31-.77-10.266 14.115-10.266 14.115l4.62-.256z" fill="#A86236" transform="translate(42 90)"/>
                <path d="M107.941 31.824c-3.337 4.876-1.283 10.009 0 10.266 1.283 0 8.982-14.115 8.212-14.885-.77-.514-5.132 0-8.212 4.619z" fill="#C4723F" transform="translate(42 90)"/>
              </g>
              <path d="M20.336 159.038s7.186-69.551 21.558-96.755l24.381 17.452 7.443 24.125 7.186 54.665-60.568.513" id="Path" fill="#F74338"/>
              <path d="M76.026 43.291c.77 3.08 2.823 5.646 5.646 6.416l.513.257c.513 0 1.027 0 1.027-.77 0-.513-.257-1.027-.77-1.027h-.513l-.513-.257h-.514c-.257 0-.513-.257-.77-.513l-.257-.257-.257-.257-.77-.77-.257-.513-.257-.257c-.257-.513-.513-.77-.77-1.283v-.257l-.256-.257c0-.257-.257-.513-.257-.77 0-.513-.77-.77-1.027-.77.002.259-.253.772.002 1.285M86.036 34.565c-.513 1.54-1.283 2.567-2.053 2.31-.77-.257-1.027-1.54-.513-3.08.513-1.54 1.283-2.566 2.053-2.31.513.257.77 1.54.513 3.08" id="Path" fill="#42210B"/>
              <path d="M86.036 34.565l-1.027-.256c-.257.513-.513 1.027-.77 1.283l-.257.257v.257-.257.257-.257l-.257 1.027.257-1.027v.257l.257-.257v.257l.257-.257s-.257-.257 0-.77c0-.257 0-.77.257-1.027.257-.513.513-1.027.77-1.283l.257-.257v-.257.257-.257.257-.257l-.257.257v-.257l-.257.257s.257.257 0 .77c0 .257 0 .77-.257 1.027l1.027.256 1.027.257c.257-.513.257-1.027.257-1.797 0-.513 0-1.027-.257-1.54-.257-.513-.513-1.027-1.027-1.027l-.257 1.027.257-1.027h-.513c-.77 0-1.283.513-1.796 1.027-.513.514-.77 1.283-1.027 2.053-.257.513-.257 1.027-.257 1.797 0 .513 0 1.027.257 1.54.257.513.513 1.027 1.027 1.027h.513c.77 0 1.283-.513 1.796-1.027.513-.513.77-1.283 1.027-2.053l-1.027-.257zM89.372 24.813c-2.053-.77-4.106-.77-6.416-.513-1.027.257-2.053.257-3.08.77-.513.257-.77.513-.77 1.027 0 .513.77.77 1.027.77 2.566-1.027 5.646-1.283 8.212-.257.513.257 1.027-.257 1.027-.77.77-.514.514-.771 0-1.027" id="Path" fill="#42210B"/>
              <path id="Path" fill="#3E4451" d="M24.955 321.237l-13.088-7.186L64 238l31 4z"/>
              <path id="Path" fill="#FFFFFF" d="M41.893 62.283l13.602 22.841 10.78-5.133z"/>
              <g transform="translate(38 183)">
                <path d="M1.07 87.678l.256 3.336-.256-3.336M.557 76.899l.257 7.956-.257-7.956" id="Shape" fill="#C9AE8B"/>
                <path id="Path" fill="#252933" d="M30.072.932l-.515 1.027-3.848 52.099L30.072.932"/>
                <path id="Path" fill="#252933" d="M29.557 1.959l-5.131 11.805-2.31 37.727L.557 76.899l.513 7.956v2.823l.257 3.336 24.125-34.903.257-2.053 3.848-52.099"/>
              </g>
              <g transform="translate(32 89)" fill="#E03D1C">
                <path d="M2.194 5.877C7.84 20.506 24.779 59.772 48.903 69.525l-1.027-8.213-3.08.77-29.771-42.859-1.796 1.027L2.194 5.877M.141.744c0 .513.257 1.027.513 1.54h.513L.141.744" id="Shape"/>
                <path d="M1.168 2.027H.655c.257 1.027.77 2.053 1.283 3.593l10.779 14.115L1.168 2.027" id="Path"/>
              </g>
              <path d="M45.229 350.494l-.257-10.779s9.239 7.699 20.275-1.027l11.036.513c12.32.258 14.629 11.293 14.629 11.293H45.229z" id="Path" fill="#F74338"/>
            </g>
            <g transform="translate(188)" fill-rule="nonzero">
              <ellipse id="Oval" fill="#E9EAF2" transform="rotate(-45 55.753 117.52)" cx="55.753" cy="117.52" rx="19.21" ry="19.278"/>
              <path id="Path" fill="#E9EAF2" d="M52.932.456v76.769h5.134V1.287"/>
              <path d="M.32 117.261s17.195-40.036 55.435-40.036 55.435 40.036 55.435 40.036H.32z" id="Path" fill="#3E4451"/>
            </g>
            <path d="M175.745 295.037c.257 6.673 2.823 15.399-13.602 11.292v-10.522s12.577-4.363 13.602-.77" id="Path" fill="#C4723F" fill-rule="nonzero"/>
            <path d="M168.303 298.373l-2.053-3.337s19.248-4.876 20.018-2.566c1.027 2.31-17.965 5.903-17.965 5.903M162.143 306.329l-45.682 10.523-30.798-44.143 15.143-12.319 22.585 39.523 38.752-4.106v10.522" id="Path" fill="#C4723F" fill-rule="nonzero"/>
            <path id="Path" fill="#F74338" fill-rule="nonzero" d="M74.628 256.54l13.088 17.452 21.046-11.805-4.106-13.859-30.028 8.212"/>
            <g transform="translate(233 268)">
              <g fill-rule="nonzero">
                <path id="Rectangle" fill="#3E4451" d="M26.411 36.789h3.593v38.24h-3.593z"/>
                <path id="Path" fill="#3E4451" d="M48.74 76.826H10.243v-3.593H48.74v3.593"/>
                <path d="M46.687 60.657H3.057c-1.54 0-2.823-1.54-2.566-3.08L12.297 2.655C12.554 1.372 13.58.602 14.863.602h43.629c1.54 0 2.823 1.54 2.567 3.08L49.253 58.604c-.513 1.027-1.54 2.053-2.566 2.053" id="Path" fill="#F74338"/>
                <path id="Path" fill="#FFFFFF" d="M42.837 53.471H6.907L17.43 7.789h35.673z"/>
                <circle id="Oval" fill="#20944E" cx="29.492" cy="30.373" r="8.469"/>
              </g>
              <path id="Path" stroke="#FFFFFF" stroke-width=".443" stroke-linejoin="round" d="M26.411 31.657l1.798 1.283 4.363-5.133"/>
            </g>
            <path d="M116.974 193.149c-1.796 2.566-5.133 19.505-3.08 33.364-14.628-4.363-34.134-13.346-36.7-18.222-2.823-4.62-4.876-31.311 10.266-48.506s43.886 9.239 43.886 9.239-11.292 5.133-14.372 24.125" id="Path" fill="#42210B" fill-rule="nonzero"/>
            <g id="Path">
              <path d="M10.285 20.884L1.559 8.052C.276 5.999.276 3.176 2.072 1.636h0c2.31-2.31 6.159-1.797 7.956 1.027l4.876 8.983" stroke="#FFFFFF" transform="translate(109 191)"/>
              <path d="M27.223 17.034c.257-2.053-.77-3.85-2.567-4.62-3.336-1.283-8.726-2.566-12.319.257-4.62 3.593-4.876 12.832-4.876 16.169 0 .77.513 1.54 1.283 1.54l6.673 1.54c3.08.77 6.159-.257 8.212-3.08 1.027-2.053 2.566-5.646 3.594-11.806z" fill="#E9EAF2" fill-rule="nonzero" transform="translate(109 191)"/>
              <g fill="#D7D8DE" fill-rule="nonzero">
                <path d="M12.682 6.194c-.257.513-.257 1.027-.513 1.54-.513 0-1.027 0-1.54-.257-2.823-.513-5.646-2.31-7.956-6.159l1.283-.77c2.568 4.363 5.903 5.646 8.726 5.646zM10.372 11.584c0 .257-.257.257-.257.513-.257.257-.513.77-.77 1.027-.513 0-.77 0-1.283-.257-2.823-.513-5.646-2.31-7.956-6.16l1.283-.77c2.567 4.363 6.16 5.647 8.983 5.647z" transform="translate(122 208)"/>
              </g>
            </g>
            <path d="M113.125 202.132c-3.08-.257-5.389-2.567-3.85-7.699 1.027-5.133 4.62-5.133 7.443-3.336 2.823 1.797 3.08 3.85 2.053 7.186-1.54 2.822-2.568 4.362-5.646 3.849" id="Path" fill="#C4723F" fill-rule="nonzero"/>
            <g id="Path">
              <path d="M21.368 10.076L37.023.837c3.336-1.796 7.699-.257 8.726 3.337h0c1.027 2.566-.77 5.389-3.08 6.673L21.111 21.626" stroke="#FFFFFF" transform="translate(368 234)"/>
              <path d="M4.849 4.062l8.726-1.54c.77-.257 1.796-.257 2.566.257l11.036 4.106c1.54.257 2.567 1.54 2.567 3.08l.513 7.443c0 .77-.257 1.54-.77 2.31-2.566 3.08-10.266 9.753-16.425 9.496C10.496 28.957-1.053 21.258.23 12.532c.513-3.336 1.796-6.159 2.823-7.186.255-.771 1.025-1.284 1.796-1.284z" fill="#E9EAF2" fill-rule="nonzero" transform="translate(368 234)"/>
              <path d="M16.441 14.77c-6.374 0-10.695-3.098-10.937-3.274l.739-1.009c.074.055 7.557 5.39 17.115 1.718l.449 1.166c-2.649 1.018-5.133 1.399-7.366 1.399zM15.672 20.93c-6.375 0-10.696-3.099-10.938-3.275l.739-1.009c.074.055 7.559 5.392 17.115 1.719l.449 1.166c-2.648 1.018-5.133 1.399-7.365 1.399z" fill="#D7D8DE" fill-rule="nonzero" transform="translate(368 234)"/>
            </g>
            <path d="M415.709 239.858c-.77 6.416-3.593 7.699-6.929 6.929-3.336-.77-3.593-3.08-3.336-6.929.257-3.85 1.54-6.416 4.62-7.186 3.335-.513 6.67.77 5.645 7.186" id="Path" fill="#E79E65" fill-rule="nonzero"/>
          </g>
          <g fill-rule="nonzero" id="Path">
            <path d="M68.064 13.259C94.01 51.577 52.239 93.357 13.915 67.418a18.51 18.51 0 01-4.94-4.939C-16.971 24.161 24.8-17.619 63.124 8.32a18.496 18.496 0 014.94 4.939z" fill="#E9EAF2" transform="translate(47 154)"/>
            <path d="M54.114 61.153l-15.38-22.216 12.817-15.38c.641-.641.427-1.709-.213-2.35-.641-.641-1.709-.427-2.35.214L35.317 37.655c-.427.641-.427 1.282 0 1.923l16.021 23.07c.427.641 1.495.855 2.136.427.853-.213 1.067-1.281.64-1.922zM38.52 65.425c1.281 0 2.563 1.068 2.563 2.563s-1.068 2.563-2.563 2.563c-1.282 0-2.563-1.068-2.563-2.563-.001-1.495 1.28-2.563 2.563-2.563zM38.52 5.186c1.281 0 2.563 1.068 2.563 2.563s-1.068 2.563-2.563 2.563c-1.282 0-2.563-1.068-2.563-2.563-.001-1.495 1.28-2.563 2.563-2.563zM66.289 37.869c0-1.282 1.068-2.563 2.563-2.563s2.563 1.068 2.563 2.563-1.068 2.563-2.563 2.563-2.563-1.281-2.563-2.563zM5.837 37.869c0-1.282 1.068-2.563 2.563-2.563 1.282 0 2.563 1.068 2.563 2.563S9.895 40.432 8.4 40.432c-1.281-.213-2.563-1.281-2.563-2.563z" fill="#D7D8DE" transform="translate(47 154)"/>
          </g>
          <g transform="translate(20 392)" fill-rule="nonzero">
            <path d="M24.124 62.05h14.885S46.452 19.447 8.982.712L24.124 62.05" id="Path" fill="#007333"/>
            <path d="M49.787 62.05s5.133 0 5.646-7.699c.257-3.08-2.823-8.469-1.797-12.576.77-3.337 7.186-5.646 8.983-9.496 2.053-4.876.257-13.345 4.106-18.992-30.027 14.115-30.027 48.762-30.027 48.762l13.089.001M16.938 62.05h14.885S27.203 32.023-.001 24.067L16.938 62.05" id="Path" fill="#20944E"/>
            <path d="M58.514 60.253H7.698s-.77 53.639 25.408 53.639 25.408-53.639 25.408-53.639" id="Path" fill="#ACE0ED"/>
            <path d="M58.514 60.253H47.992c3.08 40.55-14.629 53.639-14.629 53.639 24.638 0 25.408-47.992 25.408-53.125-.257-.257-.257-.514-.257-.514" id="Path" fill="#9DCDD9"/>
            <path id="Rectangle" fill="#D9B086" d="M7.699 102.856h51.072v5.389H7.699z"/>
            <path d="M8.982 71.546c1.54 0 2.823 1.027 2.823 2.566v50.816c0 1.283-1.027 2.566-2.567 2.566h-.257c-1.283 0-2.566-1.027-2.566-2.566V74.112c-.001-1.283 1.027-2.566 2.567-2.566zM57.231 71.546c1.54 0 2.823 1.027 2.823 2.566v50.816c0 1.283-1.027 2.566-2.566 2.566h-.257c-1.283 0-2.566-1.027-2.566-2.566V74.112c-.001-1.283 1.283-2.566 2.566-2.566z" id="Path" fill="#D9B086"/>
          </g>
        </g>
      </g>
    </g>
  </g>
</svg>
